#!OML:ASF E:/inclinewalkrobotboard/Project1/Captureday1/Session1/subject1.ASF
:FULLY-SPECIFIED
:DEGREES
188
root 0 0 0 1.388959509332392 -8.76956748853799 0.9295537189521701
lowerback 1.3928440689932746 -1.2696009724129327 -2.9543908075903653
upperback -1.0818955272990225 -1.567664619392993 2.222216476585189
thorax -1.6681139824244424 -0.7625565916904034 3.931897483985465
lowerneck -26.43131290379785 -1.8835597569327678 -7.2276211350888095
upperneck 12.130623099775953 -0.7016960922855896 4.554638452034261
head 8.070981360977326 -0.18976474019487707 2.6235179891952427
rclavicle -7.340117005134113E-15 -1.4537826850893989E-15
rhumerus -31.55124892596773 -2.173817665881037 -80.8049215471681
rradius 30.69660226704589
rwrist 17.81239201889917
rhand -18.288697860915686 9.985511240906959
rfingers 7.1250199999999495
rthumb 7.993117235475813 -19.84862091537413
lclavicle -2.8739030877406277E-15 -8.612934116463562E-16
lhumerus -10.041113835532832 9.652402159140411 89.25584053816827
lradius 59.85485746954418
lwrist -5.318295173870858
lhand -33.65646241361079 17.182703092650943
lfingers 7.125020000000009
lthumb -6.840377414861095 46.81100221944478
rfemur -4.223231094304858 2.3484564347754455 26.685999269659145
rtibia 60.04027653844694
rfoot 5.240156828284741 0.20506931883527102
rtoes 6.351084534924057
lfemur -20.736473027077768 -4.008468744822741 -16.458391221142072
ltibia 30.005426840324958
lfoot -1.0930984219574507 -3.1805100451058848
ltoes 5.0032205047485725
189
root 0 0 0 1.4066705025415298 -8.76735760124344 0.9530328628160695
lowerback 1.401781543845295 -1.2825383586614674 -2.961984251070567
upperback -1.0586028741930924 -1.5859957928497044 2.2333044255553895
thorax -1.6481689722129802 -0.7711644904431436 3.9470009650868274
lowerneck -26.660768026700996 -1.910244588102373 -7.2201681534030095
upperneck 11.728816214711728 -0.7368254701755015 4.610750875491796
head 7.955695281655217 -0.18393442096958584 2.630755401961077
rclavicle -6.3212371704352704E-15 -1.113922071593061E-15
rhumerus -31.848393107343746 -3.314659532972999 -80.61387300032287
rradius 30.447022266845853
rwrist 17.977251044268503
rhand -18.049850159363526 10.026096295283399
rfingers 7.125019999999945
rthumb 8.222024840561733 -19.799149812347018
lclavicle -2.769928609512219E-15 -9.504068028567578E-16
lhumerus -10.219598651626365 9.557171848971961 89.39353413997082
lradius 59.829318154311224
lwrist -5.260255974530766
lhand -33.61667194309033 17.200310441981568
lfingers 7.125020000000009
lthumb -6.802718318247859 46.830205145695835
rfemur -12.80032422037967 1.1411067300263724 24.10330882362452
rtibia 67.06863346096837
rfoot 5.019701242047551 -2.8981351542596627
rtoes 10.478816924603315
lfemur -16.285817266981834 -3.150178468782391 -19.54048944616322
ltibia 32.10253183524739
lfoot -1.4862860462301422 -4.45394972298401
ltoes 7.053130679247051
190
root 0 0 0 1.4322486242183214 -8.754678446098888 0.9835511535969402
lowerback 1.4050463261570187 -1.2945628137980616 -2.980131930113643
upperback -1.036226051890324 -1.60288529304104 2.2473090199336903
thorax -1.6258920923321687 -0.7786658761348791 3.9714550055564697
lowerneck -26.923020310887992 -1.9488050554964373 -7.224603353298086
upperneck 11.1911280662219 -0.7951135696131092 4.711657298198135
head 7.795030606394362 -0.17895040473761953 2.650608895345649
rclavicle -4.667709713185982E-15 -8.152700123129873E-16
rhumerus -32.20297780642869 -4.591925441156178 -80.3996697182758
rradius 30.169369269943054
rwrist 18.217246260430283
rhand -17.77119346744261 10.03373483234817
rfingers 7.1250199999999415
rthumb 8.48957040825665 -19.78535943539891
lclavicle -2.6046839949415024E-15 -8.341275756735264E-16
lhumerus -10.462166506716791 9.252375584672674 89.51960679195079
lradius 59.857983141711905
lwrist -5.12932818201199
lhand -33.54797289621755 17.283109047127873
lfingers 7.125020000000009
lthumb -6.739544725419077 46.91699219188011
rfemur -18.711572356283106 0.12584060401751618 21.739012492117467
rtibia 70.74001164031986
rfoot 2.449434404173717 -4.828673739912266
rtoes 9.867439431305822
lfemur -11.653023149358196 -2.621180278804846 -22.98201045352447
ltibia 30.920400767603553
lfoot -5.180355609173253 -3.5812669300522715
ltoes 8.419582246510853
191
root 0 0 0 1.4737696782790919 -8.765745741540194 1.0242066696774148
lowerback 1.3642243761431128 -1.3109587178350037 -3.015384305902462
upperback -1.0220458958163086 -1.627337924903107 2.2605630758518056
thorax -1.585755257490728 -0.7892835453185044 4.00583365232911
lowerneck -27.202120851077833 -1.9900520799391659 -7.259513451678711
upperneck 10.682592440492897 -0.851559036318959 4.835425391227452
head 7.650971504170972 -0.174415139757234 2.6841787039885103
rclavicle -3.93532348055736E-15 -7.824724627856834E-16
rhumerus -32.45811890125072 -5.317881684587707 -80.28317035569124
rradius 30.02180436027574
rwrist 18.47399982646067
rhand -17.58814608478272 9.933417358860446
rfingers 7.125019999999942
rthumb 8.665183216505847 -19.884646581257485
lclavicle -2.4141264519241358E-15 -6.863363653336914E-16
lhumerus -10.277855977719978 9.002907467591875 89.3775366509432
lradius 60.135720070139385
lwrist -5.1063638158092015
lhand -33.57517684131459 17.370088033963082
lfingers 7.125020000000008
lthumb -6.768712872285135 47.00370998297022
rfemur -22.76768375409015 -0.548072809523692 20.192997358396894
rtibia 70.82008118780722
rfoot -0.13994085929692268 -5.687612671766367
rtoes 7.254211330044475
lfemur -5.894626547580774 -2.446788067688635 -26.691874873963826
ltibia 27.689482740356457
lfoot -10.694349013014133 -1.864915338154724
ltoes 8.705374968286236
